<?xml version="1.0" encoding="utf-8"?>
<!-- Generator: Adobe Illustrator 15.1.0, SVG Export Plug-In . SVG Version: 6.00 Build 0)  -->
<!DOCTYPE svg PUBLIC "-//W3C//DTD SVG 1.1//EN" "http://www.w3.org/Graphics/SVG/1.1/DTD/svg11.dtd">
<svg version="1.1" id="圖層_1" xmlns="http://www.w3.org/2000/svg" xmlns:xlink="http://www.w3.org/1999/xlink" x="0px" y="0px"
	 width="466.667px" height="95.96px" viewBox="0 0 466.667 95.96" enable-background="new 0 0 466.667 95.96" xml:space="preserve">
<g>
	<path fill="#CFD0D0" d="M324.058,71.777l-0.09-0.033l-0.649,0.194l-0.863,0.82l-0.563,0.73l-0.257,0.464l-0.521,1.754l-0.08,0.498
		l0.146,0.948l0.247,0.606l0.123,0.199l0.275-0.066l0.322-0.251l0.422-0.811l0.317-0.711l0.645-2.072L324.058,71.777z
		 M326.144,58.314l0.402-0.213l0.479,0.075l0.146-0.137l0.782,0.137l0.185-0.137l0.588,0.298l0.256,0.323l0.038,0.91l-0.118,0.673
		l0.028,0.573l-0.019,0.441l-0.322,1.924l-0.081,0.92l-0.403,1.778l-0.1,0.611l-0.104,0.44l-0.152,0.408l0.081,0.203l-0.118,0.228
		l-0.257,0.36l0.076,0.483l-0.213,0.669v0.36l-0.294,0.336l0.104,0.299l0.02,0.1l-0.138,0.82l-0.156,0.332l-0.066,1.104l0.033,0.208
		l-0.085,0.342l0.137,0.241l-0.137,0.232l0.085,0.892l-0.033,0.118l0.085,0.531l0.058,0.374l0.123,1.138l0.095,0.603l0.213,0.763
		l0.181,0.39l0.118,0.075l0.294,0.73l0.36,0.635l0.104-0.028l0.213,0.422l0.114,0.36l0.417,0.289l0.118,0.033h0.313l0.308-0.095
		l0.412-0.171l0.076,0.209l-0.08,0.176l0.047,0.26l-0.512,0.603l-0.47,0.407l-0.394,0.076h-0.137l-0.403-0.266l-1.588-1.9
		l-0.977-1.83l-0.204-0.332l-0.138,0.128l0.005,0.114l-0.128,0.208l-0.204,0.403l-0.389,0.564l-0.213,0.303l-0.573,0.46
		l-1.167,0.545l-0.905,0.299l-0.597,0.053l-0.787-0.19l-0.787-0.317l-0.716-0.445l-0.568-0.64l-0.669-1.086l-0.208-0.555l-0.066-0.9
		l0.161-1.427l0.492-1.37l0.659-1.209l0.437-0.611l1.104-1.607l1.526-1.526l0.436-0.246l0.787-0.124l1.224,0.214l0.436-2.892
		l0.588-3.669l0.427-1.949l0.09-0.597l-0.146-0.616l0.057-0.531l0.176-0.028l0.08-0.403L326.144,58.314z"/>
	<path fill="#CFD0D0" d="M333.088,64.866l0.199-0.1l0.389,0.18l0.394,0.033l0.189,0.455l0.1,0.053l-0.08,0.104l0.08,0.616
		l-0.052,0.726l-0.512,0.437l-0.569,0.213l-0.483-0.038l-0.749-0.734l-0.123-0.408l-0.071-0.426l0.043-0.437l0.251-0.095
		l-0.005-0.147l0.213-0.256l0.157-0.023l0.108-0.133L333.088,64.866z M332.5,70.379l0.437-0.284l0.327,0.047l0.138-0.118l0.1-0.019
		l0.483,0.299l0.213,0.095l0.493,0.663l0.118,0.498l0.1,0.531l-0.327,1.076l-0.36,2.531l0.066,1.535l0.058,0.531l0.308,0.057
		l0.943-0.199l1.171-0.502l-0.156,0.45l0.01,0.147l-0.214,0.578l-0.189,0.246l0.071,0.161l-0.313,0.294l-0.104,0.033l-0.048,0.214
		l-0.412,0.241l-0.09,0.1l-0.877,0.726l-0.318,0.327l-0.654,0.208l-0.09,0.058l-0.171-0.058l-0.687-0.185l-0.868-0.455l-0.559-0.512
		l-0.28-0.483l-0.389-1.114l-0.232-1.427l0.076-0.849l0.379-1.679l0.721-1.754l0.645-1.246L332.5,70.379z"/>
	<path fill="#CFD0D0" d="M344.015,67.771l0.232-0.668l-0.53,0.36l-1.129,1.071l-0.033,0.379l-0.493,0.73l-0.17,0.55l-0.066,0.479
		l0.161,0.185l0.332-0.118l0.389-0.194l0.246-0.304l0.412-0.578l0.441-0.953L344.015,67.771z M345.106,65.463l0.294-0.274
		l0.739-0.053l0.284,0.161l-0.005,0.266l0.294,0.455l-0.07,0.807l-0.086,0.369l0.086,0.09l-0.171,0.649l0.138,0.503l-0.138,1.275
		l-0.048,2.204l-0.095,0.313l0.057,0.38l-0.085,0.754l-0.071,0.729l0.033,0.759l-0.118,0.327l-0.005,0.645l-0.048,0.047
		l-0.198,0.109v0.375l-0.138,0.53l0.062,0.309l-0.086,1.171l0.02,0.53l-0.365,0.38l0.09,0.236l-0.09,0.053v0.052l-0.104,0.355
		l-0.223,0.299l-0.146,0.071l-0.194,0.161l-0.256,0.403l-0.228,0.265l-0.352,0.147l-0.194,0.118l-0.479,0.138l-0.654,0.176
		l-1.545-0.256l-0.807-0.347l-0.678-0.432l-0.535-0.563l-0.669-0.777l-0.431-0.716l-0.441-1.446l-0.047-0.995l0.085-0.46
		l-0.076-0.531l0.109-0.047l0.123,0.142l0.151,0.02l0.186,0.18l0.038-0.104h0.062l0.266,0.588l0.019,0.114l0.626,0.744l0.118,0.048
		l0.181,0.284l0.09-0.01l0.261,0.327l0.218-0.005l0.479,0.711l0.432,0.304l0.636,0.332l0.517,0.18l0.36,0.023l0.819,0.157
		l0.484-0.104l-0.114-1.631v-0.734l-0.095-0.948l0.028-1.214l-0.128-1.294l-0.043-1.252l-0.062-0.062l-0.972,0.593l-0.692,0.043
		h-0.952l-0.181-0.024l-0.351-0.218l-0.389-0.402l-0.113-0.38l-0.124-0.82l0.076-0.834l0.598-1.1l0.488-0.938l0.393-0.521
		l0.152-0.123l0.696-0.745l0.322-0.251l0.195-0.085l0.303-0.171l0.55-0.332l0.739-0.019l0.455,0.138l0.19,0.189l0.066,0.161
		L345.106,65.463z"/>
	<path fill="#CFD0D0" d="M351.676,61.983l0.213-0.09l0.389,0.171l0.384,0.038l0.176,0.455l0.109,0.038l-0.091,0.137l0.114,0.607
		l-0.048,0.696l-0.525,0.475l-0.579,0.194l-0.479-0.053l-0.763-0.716l-0.104-0.417l-0.066-0.432l0.023-0.44l0.266-0.085
		l-0.028-0.161l0.223-0.237l0.166-0.023l0.095-0.119L351.676,61.983z M351.093,67.487l0.422-0.274l0.317,0.033l0.151-0.1l0.119-0.02
		l0.455,0.28l0.246,0.1l0.474,0.678l0.133,0.488l0.086,0.545l-0.327,1.062l-0.342,2.541l0.066,1.546l0.033,0.517l0.313,0.052
		l0.952-0.194l1.157-0.502l-0.171,0.455l0.015,0.156l-0.214,0.563l-0.18,0.271l0.085,0.138l-0.327,0.299l-0.085,0.019l-0.071,0.214
		l-0.412,0.236l-0.081,0.123l-0.862,0.74l-0.327,0.313l-0.654,0.218l-0.081,0.053l-0.189-0.053l-0.668-0.198l-0.872-0.446
		l-0.574-0.507l-0.284-0.479l-0.389-1.152l-0.218-1.389l0.09-0.892l0.374-1.649l0.697-1.773l0.659-1.228L351.093,67.487z"/>
	<polygon fill="#CFD0D0" points="361.982,57.67 362.46,57.589 362.66,57.527 362.892,57.618 363.252,57.888 363.698,58.433 
		364.006,59.063 364.167,59.623 363.997,61.311 363.992,61.581 364.367,61.633 365.158,61.562 366.495,61.523 368.13,61.377 
		369.851,61.325 370.5,61.486 370.638,61.562 370.595,61.656 369.875,61.983 369.401,62.302 369.092,62.354 368.974,62.538 
		368.078,62.732 368.041,62.885 367.903,62.97 367.292,63.116 366.727,63.373 365.4,63.984 364.143,64.681 363.698,65.003 
		363.091,65.373 362.703,66.179 362.754,66.662 362.636,66.98 362.475,67.507 362.475,67.819 362.475,68.028 362.323,68.436 
		362.2,69.431 362.2,69.791 362.058,70.626 361.996,71.294 362.034,71.777 361.944,71.938 362.015,72.015 362.181,72.873 
		362.252,72.953 362.892,73.186 363.404,73.058 363.992,72.636 364.129,72.521 364.3,72.498 364.304,72.588 364.163,72.782 
		364.163,73.143 364.091,73.427 363.997,73.887 363.693,74.247 363.324,74.883 362.754,75.471 362.294,75.707 361.939,76.082 
		360.788,75.921 359.768,75.541 359.034,74.906 358.579,74.048 358.132,72.636 358.066,71.133 358.388,68.08 358.602,66.715 
		358.004,66.899 356.426,67.122 355.629,66.853 355.274,66.62 355.161,66.544 354.938,66.155 354.748,66.018 354.842,65.62 
		354.767,65.435 355.023,64.961 355.606,64.652 356.933,63.809 358.554,63.183 359.403,62.885 359.569,62.809 360.422,60.106 
		361.157,58.447 361.583,57.779 	"/>
	<path fill="#CFD0D0" d="M376.132,63.021l-0.256-0.019l-0.963,0.526l-1.322,1.1l-1.598,1.636l-0.967,1.279l-0.735,1.166
		l-0.351,1.271v0.451l0.403,0.151l1.389-1.541l1.588-1.915l1.849-2.475L376.132,63.021z M374.425,61.656l0.963-0.397l0.402-0.058
		l0.598,0.508l0.09,0.204l-0.175,0.763l0.616-0.726h0.09l0.412-0.133l0.669,0.096l0.189,0.151l0.236,0.261l0.129,0.146l0.165,0.792
		l-0.137,0.427l0.208,0.507l-0.469,2.067l-0.365,1.649l0.043,0.138l-0.294,0.754l-0.081,1.241v0.47l-0.156,0.066l0.071,0.521
		l-0.091,0.402l0.091,0.294l-0.066,0.427v0.355l0.204,0.119l0.203,0.787l0.266,0.27l0.109,0.237l0.365,0.242l0.369,0.052
		l0.261,0.028v0.076l-0.374,0.161l-0.133,0.185l-0.181,0.028l-0.299,0.317l-0.037,0.161l-0.176,0.02l-0.578,0.038l-0.384-0.128
		l-0.91-0.674l-0.337-0.525l-0.332-0.551l-0.019-0.213l-0.256-0.649l-0.394-1.351l-0.119-1.527v-1.128h-0.095l0.023,0.114
		l-0.62,0.99l-0.616,0.835l-0.257,0.578l-0.284,0.355l-0.095,0.128l-0.218,0.294l-0.508,0.535l-0.924,0.797l-1.038,0.555
		l-0.541,0.019l-1.038-0.194l-0.839-0.256l-0.379-0.412l-0.271-0.398l-0.138-0.721l-0.019-0.844l0.066-1.085l0.479-1.313
		l0.138-0.161l0.469-0.83l1.328-1.602l2.076-2.006l1.764-1.474L374.425,61.656z"/>
	<polygon fill="#CFD0D0" points="385.546,50.606 385.732,50.474 386.116,50.474 386.542,50.872 386.68,51.062 386.77,51.545 
		386.533,52.802 386.253,53.745 386.196,54.195 385.666,55.66 385.5,55.973 385.357,56.627 385.219,56.883 385.144,57.271 
		384.651,58.495 384.442,59.191 384.186,59.974 384.048,60.382 383.864,60.937 383.925,61.339 383.693,61.604 383.774,61.751 
		383.518,62.596 383.556,62.732 383.518,63.136 383.309,63.529 383.399,63.946 383.329,64.079 383.262,64.416 383.262,64.984 
		383.252,65.942 383.224,66.193 383.309,66.549 383.2,66.715 383.262,66.876 383.324,67.193 383.252,67.359 383.375,68.028 
		383.442,68.246 383.603,68.914 384.001,69.824 384.281,70.241 384.281,70.531 384.57,70.763 384.618,70.977 385.272,71.507 
		386.101,71.531 386.509,71.412 386.68,71.488 386.973,71.606 386.584,71.882 386.589,72.038 386.542,72.038 386.078,72.446 
		385.935,72.521 385.513,72.583 384.5,72.365 384.02,72.062 383.494,71.669 383.224,71.389 382.352,70.279 382.266,69.98 
		381.859,69.066 381.389,67.582 381.256,66.715 381.214,65.591 381.304,65.416 381.148,65.278 381.233,63.003 381.622,60.751 
		381.716,60.523 382.01,58.979 382.987,56.12 383.129,55.798 383.518,54.603 384.651,52.181 385.319,51.005 	"/>
	<path fill="#CFD0D0" d="M402.522,60.988l-0.729-0.346l-0.972,0.156l-0.674,0.308l-0.583,0.574l-0.019,0.721l-0.664,0.455
		l0.365,1.266l0.536-0.048l0.588,0.284l1.052-0.108l0.626-0.465l0.659-0.052l0.512-0.551l0.185-1.019l-0.394-0.815L402.522,60.988z
		 M396.659,55.034l0.17-0.294l0.612-0.304l0.521,0.186l0.019-0.02l0.977,0.716l0.313,0.56l0.237,0.479l0.327,0.479l0.028,0.389
		l0.45-0.091l0.531,0.029l0.176-0.058l0.359-0.08l1.347,0.08l0.887,0.275l0.351,0.151l0.337,0.057l0.146,0.162l0.55,0.351
		l0.28,0.213l0.402,0.531l0.147,0.189l0.398,0.218l0.085,0.237l0.019,0.052l-0.052,0.124l0.308,0.492l0.1,0.299l0.181,0.261
		l0.071,0.384l0.118,1.063l-0.189,0.621l-0.071,0.929l-0.502,0.536l0.042,0.284l-0.351,0.412l-0.304,0.166l-0.09,0.119l-0.313,0.455
		l-0.513,0.355l-0.194,0.246l-0.412,0.237l-0.161,0.071l-0.271,0.213l-0.113-0.095l-0.37,0.266l-0.721,0.241l-0.023-0.189
		l-0.104-0.076l-0.104,0.114l-0.924,0.313l-1.081-0.095l-0.972-0.005l-0.218,0.024l-1.214-0.299l-0.346,0.095l0.118,0.304v0.412
		l-0.185,0.716l-0.028,0.721V69.9l-0.199,0.668l0.052,0.607l-0.232,0.862l-0.095,0.669l-0.085,0.175l-0.104,0.877l0.118,0.024
		l0.209,0.455v0.052l-0.327,0.427l0.156,0.151l-0.398,0.475l-0.246-0.166h-0.081l-0.08,0.166l0.118,0.389l-0.066,0.389l-0.246,0.525
		l0.038,0.162l-0.275,0.189l-0.621,0.1l-0.218-0.071l-0.313-0.261l-0.394-0.645l-0.294-0.777l-0.138-1.19l-0.052-1.493l0.014-1.872
		l0.104-1.143l0.228-3.702l0.256-2.172l-0.071-0.241l0.091-0.266l-0.237-0.261l-0.194-0.194l-0.081-0.583l0.186-0.114l0.052-0.256
		l-0.138,0.015l-0.019-0.119l0.341-0.284l0.143-0.341l0.365-0.375l0.223-0.729l0.716-2.564l0.811-2.186L396.659,55.034z"/>
	<path fill="#CFD0D0" d="M416.028,57.319l-0.199-0.156l-0.232,0.057l-0.289,0.118l-0.146,0.189l-0.332,0.36l-0.375,0.37
		l-0.583,0.934l-0.431,0.967l-0.347,0.854l-0.427,1.247l-0.241,1.355l0.066,0.636l0.246,0.313l0.355,0.023l0.413-0.118l0.445-0.199
		l0.517-0.284l0.654-0.669l0.474-0.758l0.503-0.977l0.204-1.394v-0.812l-0.119-1.199L416.028,57.319z M414.435,54.484l0.598-0.483
		l0.327,0.057l0.545-0.043l0.664,0.015l0.236,0.241l0.256,0.375l0.038,0.118l-0.104,0.128l0.176,0.048l0.46,0.483l-0.104,0.351
		h0.256l-0.033,0.156l0.237,0.19l0.151,0.455l0.403,0.696l0.455,1.043l0.095,0.299l0.156,0.407l0.204,0.521l-0.09,0.242l-0.015,0.46
		l0.242,0.45l-0.062,0.223v0.64l-0.181,1.053l0.048,0.437l-0.161,0.27l-0.355,0.261l-0.015,0.546l-0.531,0.744l-0.208,0.431
		l-0.631,0.579l-0.498,0.464l-0.223,0.209v0.113l-0.389,0.441l-0.266,0.043l-0.137,0.165l-0.152-0.023l-0.104,0.119l-0.739,0.384
		l-0.394-0.043l-0.019,0.166l-0.119,0.019l-0.104-0.113l-0.275,0.261l-0.109,0.028l-0.781,0.109l-0.176-0.058l-0.123,0.058
		l-0.986-0.015l-0.659-0.271l-0.517-0.17l-0.427-0.322l-0.313-0.271l-0.143-0.346l-0.123-0.109l-0.18-0.237l-0.066-0.346
		l-0.166-0.569l-0.143-0.075l-0.085-0.403l-0.242-0.123l-0.08-0.28l-0.043-0.308l0.194-0.151l-0.071-0.1l-0.038-0.138l-0.156-0.673
		l-0.009-0.503l0.369-1.128l0.09-0.649l0.261-0.199l0.02-0.488l1.389-2.74l0.55-0.739l0.322-0.508l1.066-1.228l0.294-0.213
		l0.252-0.294l0.397-0.275l0.171,0.114l0.261-0.166L414.435,54.484z"/>
	<polygon fill="#CFD0D0" points="435.222,47.022 435.559,46.388 435.611,46.388 435.544,46.886 435.493,47.022 435.535,47.175 
		435.402,47.231 435.459,47.506 435.544,47.539 435.393,48.108 435.302,48.44 435.038,48.896 435.127,49.108 434.786,50.336 
		434.752,50.555 434.749,50.772 434.435,51.896 434.364,52.237 434.392,52.427 434.274,52.935 434.34,53.096 434.34,53.47 
		434.151,54.295 434.032,54.702 433.952,55.679 433.719,56.286 433.672,56.736 433.776,56.978 433.648,57.48 433.596,57.604 
		433.709,57.916 433.553,58.419 433.478,58.532 433.326,59.396 433.122,60.41 432.847,61.443 432.586,62.164 432.42,62.766 
		432.203,63.021 431.799,63.401 431.562,63.771 431.25,63.984 430.462,64.036 429.585,63.733 428.87,63.103 428.296,62.088 
		427.694,60.618 427.164,57.959 426.86,56.381 426.77,56.414 426.594,56.959 426.305,59.012 426.372,59.472 426.196,60.799 
		426.31,61.226 426.196,62.922 425.822,64.895 425.348,65.297 424.93,65.373 424.239,65.056 423.817,64.7 423.262,63.984 
		422.831,62.856 422.475,61.538 422.025,59.376 421.75,56.551 421.598,53.863 421.925,53.171 422.148,53.001 422.618,52.935 
		423.196,53.375 423.518,53.93 423.917,56.044 423.935,56.575 424.172,57.343 424.329,58.281 424.267,58.661 424.442,59.761 
		424.897,57.457 425.111,56.381 425.589,55.144 425.803,54.802 426.011,54.594 426.514,54.313 427.049,54.058 427.694,54.001 
		428.14,54.271 428.5,54.579 428.865,55.063 429.273,55.954 429.401,56.423 429.708,58.433 429.685,58.585 429.999,60.211 
		430.273,61.073 430.391,61.259 430.51,61.244 431.889,56.836 433.07,52.475 433.515,51.176 433.553,51.062 433.833,50.365 
		433.952,50.1 434.032,49.711 434.222,49.189 434.317,49.023 434.53,48.449 434.805,47.899 434.795,47.771 434.943,47.582 
		435.222,47.051 	"/>
	<path fill="#CFD0D0" d="M443.528,52.854l-0.119,0.028l-0.688,0.237l-0.929,0.56l-1.161,0.824l-1.104,1.209l-0.536,0.726
		l-0.734,1.232l0.654-0.138l1.08-0.583l0.991-0.721l0.763-0.668l0.603-0.759l0.512-0.716L443.528,52.854z M442.641,51.351
		l0.957-0.479l1.006-0.028l0.298,0.204l0.171,0.364l-0.095,0.133l0.246,0.422l0.043,0.674l-0.156,0.436l-0.005,0.209l-0.043,0.156
		l-0.327,0.645l-0.014,0.209l-0.166,0.308l-0.313,0.384l-0.194,0.214l-0.451,0.573l-0.535,0.721l-0.475,0.564l-0.033,0.161
		l-0.303,0.213l-0.114,0.024l-0.274,0.294l-0.275,0.208l-0.791,0.768l-0.394,0.214l-0.086,0.161l-1.275,0.754l-0.616,0.142
		l-0.113,0.484l0.113,0.161l0.181,0.246l0.801,0.284l1.204,0.152l1.271-0.033L442,61.387l2.119-0.232l1.541-0.322l1.389-0.45
		l0.707-0.275l0.123-0.028l0.019,0.133l-0.711,0.588l-0.692,0.469l-0.023,0.119l-0.313,0.151l-0.418,0.118l-0.08,0.171l-0.626,0.398
		l-0.251,0.023l-0.104,0.171l-0.194,0.071h-0.289l-0.01,0.066l-0.327,0.038l-0.123,0.189l-0.673,0.185l-0.422,0.133l-0.593,0.209
		h-0.394l-0.047,0.062l-0.569,0.08l-0.118,0.143l-0.209-0.02l-0.332,0.048l-0.137-0.048l-0.408,0.062l-0.08-0.085l-0.261,0.043
		l-0.36-0.066l-0.104-0.033l-0.015-0.043l-0.085-0.052l-0.346,0.052l-0.138-0.019l-0.194,0.085l-0.237-0.146l-0.445-0.214
		l-0.531-0.422l-0.512-0.488l-0.588-0.9l-0.109-0.342l0.028-0.175l-0.228-0.541l-0.019-0.133l-0.1-0.137l0.033-0.219l-0.052-0.427
		l-0.024-0.474l0.479-0.986l0.578-1.052l0.46-0.56l0.379-0.593l0.337-0.313l1.721-1.73l1.289-1.1L442.641,51.351z"/>
	<polygon fill="#CFD0D0" points="450.879,49.806 451.174,49.597 451.658,49.521 452.302,50.005 452.425,50.678 452.425,51.062 
		453.042,50.606 453.942,50.189 455.26,50.028 455.881,50.023 457.09,50.44 457.574,50.744 458.047,51.37 458.147,51.73 
		457.853,52.157 457.872,52.261 457.498,52.744 457.132,52.744 456.928,52.503 456.531,52.408 455.312,52.332 454.918,52.398 
		454.217,52.593 453.44,53.166 452.89,53.764 452.259,54.991 451.894,56.167 451.658,58.585 451.671,60.021 451.671,60.505 
		451.62,61.709 451.505,61.927 451.017,62.164 450.761,62.472 450.449,62.596 450.178,62.515 450.074,62.302 449.491,61.656 
		449.334,61.311 449.373,61.131 449.235,61.036 449.083,60.737 449.155,60.41 449.235,60.021 449.178,59.286 449.448,56.011 
		449.951,52.351 450.42,50.56 	"/>
	<path fill="#0084CE" d="M54.022,56.067V36.85c0-1.9-0.038-3.503-0.114-4.787c-0.066-1.314-0.271-2.361-0.612-3.186
		c-0.36-0.835-0.891-1.413-1.598-1.797c-0.739-0.379-1.754-0.588-3.072-0.588c-0.929,0-1.839,0.213-2.735,0.612
		c-0.901,0.408-1.873,0.967-2.916,1.701v27.263H30.902V36.85c0-1.877-0.038-3.461-0.123-4.787c-0.076-1.314-0.275-2.361-0.626-3.186
		c-0.351-0.835-0.881-1.413-1.621-1.797c-0.721-0.379-1.735-0.588-3.024-0.588c-0.996,0-1.953,0.237-2.911,0.692
		c-0.938,0.459-1.863,0.996-2.759,1.621v27.263H7.797V17.684h12.041v4.195c1.977-1.654,3.83-2.968,5.565-3.897
		c1.74-0.943,3.712-1.403,5.893-1.403c2.366,0,4.432,0.555,6.215,1.678c1.796,1.114,3.143,2.787,4.101,4.992
		c2.309-2.133,4.503-3.788,6.551-4.944c2.053-1.152,4.138-1.726,6.234-1.726c1.801,0,3.399,0.275,4.826,0.867
		c1.408,0.56,2.622,1.408,3.612,2.541c1.076,1.228,1.882,2.707,2.432,4.414c0.531,1.697,0.801,3.911,0.801,6.642v25.024H54.022z"/>
	<path fill="#0084CE" d="M96.406,46.042v-8.073c-2.024,0.218-3.655,0.384-4.897,0.545c-1.266,0.143-2.479,0.417-3.688,0.877
		c-1.038,0.351-1.858,0.905-2.437,1.664c-0.569,0.744-0.863,1.735-0.863,2.996c0,1.787,0.498,3.048,1.441,3.721
		c0.943,0.692,2.389,1.029,4.267,1.029c1.057,0,2.133-0.256,3.219-0.735C94.543,47.582,95.515,46.904,96.406,46.042 M96.378,53.356
		c-0.83,0.673-1.071,1.052-1.792,1.512c-0.83,0.475-1.74,0.905-2.901,1.299c-1.167,0.389-1.925,0.503-3.124,0.697
		c-1.034,0.161-2.555,0.232-4.399,0.232c-3.399,0-6.21-1.124-8.457-3.428c-2.256-2.294-3.385-5.148-3.385-8.628
		c0-2.854,0.574-5.172,1.707-6.911c1.133-1.764,2.788-3.157,4.935-4.186c2.176-1.058,4.755-1.802,7.77-2.21
		c3.024-0.398,6.276-0.721,9.742-0.962v-0.189c0-2.128-0.782-3.579-2.333-4.385c-1.583-0.834-3.911-1.228-7.049-1.228
		c-1.398,0-3.048,0.265-4.958,0.744c-1.877,0.483-3.721,1.133-5.527,1.929h-1.034V18.4c1.171-0.332,3.115-0.74,5.765-1.195
		c2.655-0.483,5.352-0.72,8.03-0.72c6.665,0,11.491,1.109,14.515,3.318c3.053,2.195,4.565,5.561,4.565,10.087v26.177H96.406
		L96.378,53.356z"/>
	<path fill="#0084CE" d="M153.619,56.067h-12.041v-19.08c0-1.56-0.047-3.081-0.185-4.65c-0.119-1.531-0.375-2.659-0.707-3.409
		c-0.427-0.857-1.024-1.464-1.806-1.848c-0.792-0.379-1.849-0.588-3.167-0.588c-0.986,0-1.996,0.208-3.015,0.588
		c-1.014,0.346-2.095,0.938-3.228,1.725v27.263h-12.074V17.684h12.074l0.019,2.811c1.991-1.47,3.574-2.114,5.423-2.811
		c1.953-0.692,4.243-1.104,6.509-1.104c3.958,0,6.978,1.228,9.078,3.702c2.076,2.484,3.119,6.059,3.119,10.761V56.067z"/>
	<path fill="#0084CE" d="M185.688,43.984V28.639c-0.351-0.971-1.332-2.251-2.678-2.602c-0.858-0.185-1.626-0.27-2.513-0.27
		c-2.901,0-4.736,0.621-6.201,2.489c-1.474,1.877-2.195,4.498-2.195,7.868c0,1.659,0.104,3.091,0.337,4.262
		c0.218,1.157,0.625,2.19,1.208,3.096c0.583,0.844,1.332,1.508,2.285,1.973c0.924,0.469,2.114,0.658,3.574,0.658
		c1.085,0,2.138-0.166,3.19-0.54C183.754,45.202,184.726,44.686,185.688,43.984 M197.734,51.636c0,3.569-0.507,6.599-1.55,9.059
		c-1.038,2.488-2.427,4.418-4.243,5.807c-1.801,1.413-3.939,2.441-6.442,3.067c-2.526,0.626-5.304,0.93-8.353,0.93
		c-2.574,0-5.02-0.143-7.329-0.493c-2.318-0.318-4.314-0.692-6.025-1.152v-9.575h1.427c0.578,0.241,1.28,0.464,2.119,0.744
		c0.815,0.289,1.626,0.535,2.479,0.753c0.972,0.257,1.953,0.451,2.887,0.603c0.943,0.161,1.896,0.256,2.901,0.256
		c2.057,0,3.764-0.213,5.139-0.645c1.37-0.432,2.384-1.015,3.072-1.797c0.702-0.787,1.185-1.734,1.46-2.835
		c0.275-1.085,0.413-3.398,0.413-3.398c-1.379,1.176-2.868,1.526-4.726,2.01c-1.877,0.498-3.603,0.526-5.499,0.526
		c-5.035,0-8.917-1.631-11.628-4.868c-2.735-3.233-4.101-8.145-4.101-14.767c0-3.016,0.408-5.713,1.251-8.111
		c0.839-2.384,1.996-4.409,3.522-6.11c1.427-1.622,3.143-2.849,5.172-3.75c2.048-0.853,4.129-1.308,6.329-1.308
		c1.981,0,3.754,0.27,5.324,0.787c1.564,0.521,2.977,1.204,4.285,2.048l0.441-1.711h11.676V51.636z"/>
	<path fill="#0084CE" d="M228.229,46.042v-8.073c-2.015,0.218-3.646,0.384-4.911,0.545c-1.232,0.143-2.451,0.417-3.655,0.877
		c-1.053,0.351-1.863,0.905-2.441,1.664c-0.583,0.744-0.877,1.735-0.877,2.996c0,1.806,0.483,3.048,1.455,3.721
		c0.962,0.692,2.394,1.029,4.267,1.029c1.057,0,2.109-0.256,3.209-0.735C226.362,47.582,227.357,46.904,228.229,46.042
		 M228.229,51.967c-0.825,0.716-1.545,1.318-2.209,1.873c-0.654,0.53-1.508,1.076-2.607,1.635c-1.09,0.526-2.124,0.906-3.148,1.2
		c-1.028,0.303-2.417,0.422-4.28,0.422c-3.38,0-6.196-1.124-8.467-3.418c-2.261-2.304-3.356-5.158-3.356-8.638
		c0-2.854,0.559-5.172,1.692-6.911c1.147-1.764,2.783-3.157,4.93-4.186c2.171-1.058,4.759-1.802,7.784-2.21
		c3.015-0.398,6.267-0.721,9.732-0.962v-0.189c0-2.128-0.763-3.579-2.351-4.385c-1.555-0.834-3.882-1.228-7.011-1.228
		c-1.422,0-3.081,0.265-4.968,0.744c-1.896,0.502-3.755,1.133-5.542,1.929H207.4V18.4c1.199-0.332,3.109-0.74,5.769-1.195
		c2.664-0.483,5.352-0.72,8.04-0.72c6.637,0,11.477,1.109,14.501,3.318c3.048,2.195,4.579,5.561,4.579,10.087v26.177h-12.06V51.967z
		"/>
	<polygon fill="#0084CE" points="285.276,17.703 265.764,70.095 252.828,70.095 258.682,55.11 244.508,17.703 257.208,17.703 
		265.3,41.704 272.889,17.703 	"/>
	<path fill="#0084CE" d="M311.093,46.042v-8.073c-2.02,0.218-3.655,0.384-4.902,0.545c-1.246,0.143-2.493,0.417-3.669,0.877
		c-1.053,0.351-1.858,0.905-2.446,1.664c-0.573,0.744-0.877,1.735-0.877,2.996c0,1.806,0.503,3.048,1.465,3.721
		c0.958,0.692,2.399,1.029,4.276,1.029c1.038,0,2.119-0.256,3.195-0.735C309.23,47.582,310.216,46.904,311.093,46.042
		 M311.093,51.967c-0.82,0.716-1.551,1.318-2.21,1.873c-0.645,0.53-1.517,1.076-2.626,1.635c-1.062,0.526-2.1,0.906-3.138,1.2
		c-1.015,0.303-2.441,0.422-4.257,0.422c-3.404,0-6.239-1.124-8.477-3.418c-2.261-2.304-3.394-5.158-3.394-8.638
		c0-2.854,0.573-5.172,1.726-6.911c1.138-1.764,2.792-3.157,4.939-4.186c2.161-1.058,4.754-1.802,7.778-2.21
		c3.021-0.398,6.248-0.721,9.737-0.962v-0.189c0-2.128-0.811-3.579-2.36-4.385c-1.551-0.834-3.906-1.228-7.03-1.228
		c-1.394,0-3.072,0.265-4.959,0.744c-1.896,0.502-3.721,1.133-5.541,1.929h-1.015V18.4c1.166-0.332,3.109-0.74,5.76-1.195
		c2.678-0.483,5.338-0.72,8.035-0.72c6.641,0,11.49,1.109,14.511,3.318c3.062,2.195,4.551,5.561,4.551,10.087v26.177h-12.031V51.967
		z"/>
	<path fill="#0084CE" d="M356.843,36.987c0-2.304-0.185-4.2-0.569-5.712c-0.379-1.518-0.905-2.75-1.573-3.665
		c-0.711-0.929-1.498-1.611-2.399-1.991c-0.896-0.384-1.919-0.55-3.071-0.55c-1.058,0-2.053,0.137-2.925,0.483
		c-0.863,0.336-1.683,0.962-2.408,1.911c-0.683,0.872-1.256,2.095-1.654,3.646c-0.417,1.564-0.616,3.493-0.616,5.878
		c0,2.322,0.194,4.247,0.573,5.684c0.389,1.432,0.9,2.589,1.521,3.466c0.641,0.886,1.446,1.54,2.418,1.953
		c0.948,0.412,2.033,0.62,3.2,0.62c0.957,0,1.929-0.208,2.938-0.62c1-0.413,1.797-1.015,2.385-1.85
		c0.73-0.985,1.237-2.161,1.636-3.526C356.663,41.329,356.843,39.409,356.843,36.987 M369.207,36.906
		c0,6.314-1.749,11.269-5.215,14.899c-3.484,3.641-8.409,5.466-14.762,5.466c-6.314,0-11.249-1.825-14.719-5.466
		c-3.518-3.631-5.267-8.585-5.267-14.899c0-6.395,1.749-11.377,5.267-14.994c3.47-3.607,8.404-5.428,14.719-5.428
		c6.353,0,11.244,1.82,14.743,5.465C367.458,25.577,369.207,30.559,369.207,36.906"/>
</g>
</svg>
